<svg width="24" height="24" viewBox="0 0 24 24" fill="none" xmlns="http://www.w3.org/2000/svg">
    <path d="M20.9902 9.00053L18.9902 11.0005L17.4902 7.30053C17.3488 6.92186 17.0959 6.59495 16.7649 6.36288C16.434 6.13081 16.0404 6.00448 15.6362 6.00053H8.39023C7.98274 5.99117 7.58211 6.10654 7.242 6.33119C6.9019 6.55585 6.63855 6.87905 6.48723 7.25753L4.99023 11.0005L2.99023 9.00053" fill="#D9D9D9"/>
    <path d="M20.9902 9.00053L18.9902 11.0005L17.4902 7.30053C17.3488 6.92186 17.0959 6.59495 16.7649 6.36288C16.434 6.13081 16.0404 6.00448 15.6362 6.00053H8.39023C7.98274 5.99117 7.58211 6.10654 7.242 6.33119C6.9019 6.55585 6.63855 6.87905 6.48723 7.25753L4.99023 11.0005L2.99023 9.00053" stroke="#FBFBFD" stroke-width="2" stroke-linecap="round" stroke-linejoin="round"/>
    <path d="M7 14H7.01" stroke="#FBFBFD" stroke-width="2" stroke-linecap="round" stroke-linejoin="round"/>
    <path d="M17 14H17.01" stroke="#FBFBFD" stroke-width="2" stroke-linecap="round" stroke-linejoin="round"/>
    <path d="M19 10H5C3.89543 10 3 10.8954 3 12V16C3 17.1046 3.89543 18 5 18H19C20.1046 18 21 17.1046 21 16V12C21 10.8954 20.1046 10 19 10Z" stroke="#FBFBFD" stroke-width="2" stroke-linecap="round" stroke-linejoin="round"/>
    <path d="M5 18V20" stroke="#FBFBFD" stroke-width="2" stroke-linecap="round" stroke-linejoin="round"/>
    <path d="M19 18V20" stroke="#FBFBFD" stroke-width="2" stroke-linecap="round" stroke-linejoin="round"/>
</svg>
