<svg width="22" height="22" viewBox="0 0 22 22" fill="none" xmlns="http://www.w3.org/2000/svg">
    <path d="M20.1668 15.583C20.1668 16.0693 19.9737 16.5356 19.6299 16.8794C19.2861 17.2232 18.8198 17.4163 18.3336 17.4163H6.25955C5.77337 17.4164 5.30714 17.6097 4.96341 17.9534L2.94496 19.972C2.85394 20.0629 2.73798 20.1249 2.61175 20.15C2.48551 20.1751 2.35467 20.1622 2.23576 20.113C2.11685 20.0637 2.01521 19.9803 1.94369 19.8733C1.87218 19.7663 1.834 19.6405 1.83398 19.5117V4.5833C1.83398 4.09707 2.02713 3.63077 2.37094 3.28696C2.71475 2.94315 3.18106 2.75 3.66727 2.75H18.3336C18.8198 2.75 19.2861 2.94315 19.6299 3.28696C19.9737 3.63077 20.1668 4.09707 20.1668 4.5833V15.583Z" stroke="#737373" stroke-width="1.37497" stroke-linecap="round" stroke-linejoin="round"/>
</svg>
