<svg width="16" height="16" viewBox="0 0 16 16" fill="none" xmlns="http://www.w3.org/2000/svg">
    <g clip-path="url(#clip0_226_4017)">
        <path d="M1.99288 10.8902C2.09087 11.1373 2.11268 11.4082 2.05552 11.6678L1.34582 13.8603C1.32295 13.9714 1.32886 14.0866 1.363 14.1949C1.39713 14.3031 1.45835 14.4009 1.54085 14.4788C1.62335 14.5568 1.7244 14.6124 1.83442 14.6404C1.94443 14.6683 2.05976 14.6677 2.16948 14.6386L4.44386 13.9735C4.6889 13.9249 4.94267 13.9462 5.17622 14.0348C6.59922 14.6994 8.2112 14.84 9.72776 14.4318C11.2443 14.0237 12.568 13.093 13.4652 11.804C14.3625 10.515 14.7756 8.95057 14.6318 7.38665C14.488 5.82273 13.7964 4.35986 12.6791 3.25613C11.5619 2.15241 10.0906 1.47877 8.52508 1.35406C6.95952 1.22935 5.40022 1.66159 4.12229 2.57451C2.84436 3.48744 1.92993 4.82238 1.54033 6.34381C1.15074 7.86524 1.31101 9.47538 1.99288 10.8902Z" stroke="black" stroke-width="1.33278" stroke-linecap="round" stroke-linejoin="round"/>
    </g>
    <defs>
        <clipPath id="clip0_226_4017">
            <rect width="15.9933" height="15.9933" fill="white"/>
        </clipPath>
    </defs>
</svg>
