<svg width="16" height="16" viewBox="0 0 16 16" fill="none" xmlns="http://www.w3.org/2000/svg">
    <g clip-path="url(#clip0_439_2609)">
        <path d="M14.4428 6.62452C14.7453 8.10938 14.5297 9.65309 13.8319 10.9982C13.134 12.3433 11.9961 13.4086 10.6079 14.0162C9.21972 14.6239 7.66516 14.7374 6.20347 14.3376C4.74178 13.9378 3.46131 13.049 2.5756 11.8195C1.6899 10.5899 1.25249 9.09382 1.33632 7.58077C1.42016 6.06771 2.02017 4.62913 3.03629 3.50492C4.05241 2.38071 5.42323 1.63883 6.92014 1.403C8.41705 1.16716 9.94956 1.45163 11.2621 2.20896" stroke="#00C950" stroke-linecap="round" stroke-linejoin="round"/>
        <path d="M5.96289 7.28789L7.95039 9.27539L14.5754 2.65039" stroke="#00C950" stroke-linecap="round" stroke-linejoin="round"/>
    </g>
    <defs>
        <clipPath id="clip0_439_2609">
            <rect width="15.9" height="15.9" fill="white"/>
        </clipPath>
    </defs>
</svg>
