<svg width="22" height="22" viewBox="0 0 22 22" fill="none" xmlns="http://www.w3.org/2000/svg">
    <path d="M11.5376 2.37016C11.1938 2.02633 10.7276 1.83312 10.2414 1.83301H3.66727C3.18106 1.83301 2.71475 2.02616 2.37094 2.36996C2.02713 2.71377 1.83398 3.18008 1.83398 3.66629V10.2404C1.83409 10.7267 2.0273 11.1929 2.37114 11.5367L10.3496 19.5151C10.7662 19.9291 11.3298 20.1615 11.917 20.1615C12.5044 20.1615 13.0679 19.9291 13.4845 19.5151L19.5161 13.4836C19.9301 13.0669 20.1624 12.5034 20.1624 11.9161C20.1624 11.3288 19.9301 10.7653 19.5161 10.3487L11.5376 2.37016Z" stroke="#737373" stroke-width="1.37497" stroke-linecap="round" stroke-linejoin="round"/>
    <path d="M6.87617 7.33243C7.12923 7.33243 7.33438 7.12728 7.33438 6.87422C7.33438 6.62116 7.12923 6.41602 6.87617 6.41602C6.62311 6.41602 6.41797 6.62116 6.41797 6.87422C6.41797 7.12728 6.62311 7.33243 6.87617 7.33243Z" fill="#737373" stroke="#737373" stroke-width="1.37497" stroke-linecap="round" stroke-linejoin="round"/>
</svg>
