<svg width="20" height="20" viewBox="0 0 20 20" fill="none" xmlns="http://www.w3.org/2000/svg">
    <path d="M13.328 8.33008C13.328 9.21377 12.9769 10.0613 12.352 10.6861C11.7272 11.311 10.8797 11.662 9.99601 11.662C9.11232 11.662 8.26483 11.311 7.63997 10.6861C7.01511 10.0613 6.66406 9.21377 6.66406 8.33008" stroke="#00C950" stroke-width="1.24948" stroke-linecap="round" stroke-linejoin="round"/>
    <path d="M2.58496 5.02539H17.4071" stroke="#00C950" stroke-width="1.24948" stroke-linecap="round" stroke-linejoin="round"/>
    <path d="M2.83222 4.55398C2.61594 4.84235 2.49902 5.1931 2.49902 5.55356V16.6598C2.49902 17.1016 2.67454 17.5254 2.98698 17.8378C3.29941 18.1502 3.72315 18.3257 4.165 18.3257H15.8268C16.2686 18.3257 16.6924 18.1502 17.0048 17.8378C17.3173 17.5254 17.4928 17.1016 17.4928 16.6598V5.55356C17.4928 5.1931 17.3759 4.84235 17.1596 4.55398L15.4936 2.3324C15.3384 2.1255 15.1372 1.95756 14.9059 1.8419C14.6745 1.72623 14.4195 1.66602 14.1608 1.66602H5.83097C5.57233 1.66602 5.31725 1.72623 5.08592 1.8419C4.85459 1.95756 4.65337 2.1255 4.49819 2.3324L2.83222 4.55398Z" stroke="#00C950" stroke-width="1.24948" stroke-linecap="round" stroke-linejoin="round"/>
</svg>
