<svg width="20" height="20" viewBox="0 0 20 20" fill="none" xmlns="http://www.w3.org/2000/svg">
    <path d="M13.328 16.6598V3.33199C13.328 2.89014 13.1524 2.4664 12.84 2.15397C12.5276 1.84154 12.1038 1.66602 11.662 1.66602H8.33004C7.88819 1.66602 7.46445 1.84154 7.15201 2.15397C6.83958 2.4664 6.66406 2.89014 6.66406 3.33199V16.6598" stroke="#D4AF37" stroke-width="1.24948" stroke-linecap="round" stroke-linejoin="round"/>
    <path d="M16.6598 4.99805H3.33199C2.4119 4.99805 1.66602 5.74393 1.66602 6.66402V14.9939C1.66602 15.914 2.4119 16.6599 3.33199 16.6599H16.6598C17.5799 16.6599 18.3257 15.914 18.3257 14.9939V6.66402C18.3257 5.74393 17.5799 4.99805 16.6598 4.99805Z" stroke="#D4AF37" stroke-width="1.24948" stroke-linecap="round" stroke-linejoin="round"/>
</svg>
