<svg width="22" height="22" viewBox="0 0 22 22" fill="none" xmlns="http://www.w3.org/2000/svg">
    <path d="M14.6672 9.16602C14.6672 10.1385 14.2809 11.0711 13.5932 11.7587C12.9056 12.4463 11.973 12.8326 11.0005 12.8326C10.0281 12.8326 9.09551 12.4463 8.4079 11.7587C7.72028 11.0711 7.33398 10.1385 7.33398 9.16602" stroke="#737373" stroke-width="1.37497" stroke-linecap="round" stroke-linejoin="round"/>
    <path d="M2.84375 5.53027H19.1545" stroke="#737373" stroke-width="1.37497" stroke-linecap="round" stroke-linejoin="round"/>
    <path d="M3.11666 5.01102C2.87866 5.32835 2.75 5.71432 2.75 6.11099V18.3326C2.75 18.8188 2.94315 19.2851 3.28696 19.6289C3.63077 19.9727 4.09707 20.1659 4.5833 20.1659H17.4163C17.9025 20.1659 18.3688 19.9727 18.7126 19.6289C19.0564 19.2851 19.2496 18.8188 19.2496 18.3326V6.11099C19.2496 5.71432 19.1209 5.32835 18.883 5.01102L17.0496 2.56632C16.8789 2.33864 16.6574 2.15384 16.4029 2.02656C16.1484 1.89927 15.8676 1.83301 15.583 1.83301H6.41658C6.13197 1.83301 5.85127 1.89927 5.5967 2.02656C5.34215 2.15384 5.12071 2.33864 4.94995 2.56632L3.11666 5.01102Z" stroke="#737373" stroke-width="1.37497" stroke-linecap="round" stroke-linejoin="round"/>
</svg>
