<svg width="20" height="20" viewBox="0 0 20 20" fill="none" xmlns="http://www.w3.org/2000/svg">
    <path d="M2.49208 13.6125C2.61456 13.9214 2.64183 14.26 2.57038 14.5845L1.68325 17.3251C1.65467 17.4641 1.66206 17.608 1.70472 17.7434C1.74739 17.8787 1.82391 18.0009 1.92704 18.0983C2.03017 18.1958 2.15648 18.2653 2.294 18.3002C2.43151 18.3352 2.57568 18.3344 2.71282 18.298L5.5558 17.4667C5.86211 17.4059 6.17932 17.4325 6.47126 17.5433C8.25 18.374 10.265 18.5497 12.1607 18.0395C14.0564 17.5294 15.711 16.366 16.8325 14.7548C17.9541 13.1435 18.4705 11.188 18.2907 9.23307C18.111 7.27816 17.2465 5.44957 15.8499 4.06992C14.4533 2.69027 12.6143 1.84822 10.6573 1.69233C8.70038 1.53644 6.75125 2.07674 5.15384 3.2179C3.55643 4.35905 2.41339 6.02773 1.92639 7.92952C1.4394 9.8313 1.63974 11.844 2.49208 13.6125Z" stroke="#2B7FFF" stroke-width="1.24948" stroke-linecap="round" stroke-linejoin="round"/>
</svg>
