<svg width="16" height="16" viewBox="0 0 16 16" fill="none" xmlns="http://www.w3.org/2000/svg">
    <path d="M8 0C5.35328 0 3.2 1.89253 3.2 4.21875C3.2 6.54497 5.35328 8.4375 8 8.4375C10.6467 8.4375 12.8 6.54497 12.8 4.21875C12.8 1.89253 10.6467 0 8 0ZM13.9721 11.1936C12.658 10.0208 10.9159 9.375 9.06667 9.375H6.93333C5.08416 9.375 3.34201 10.0208 2.02788 11.1936C0.720178 12.3606 0 13.901 0 15.5312C0 15.7901 0.238791 16 0.533333 16H15.4667C15.7612 16 16 15.7901 16 15.5312C16 13.901 15.2798 12.3606 13.9721 11.1936Z" fill="#737373"/>
</svg>
