<svg width="20" height="20" viewBox="0 0 20 20" fill="none" xmlns="http://www.w3.org/2000/svg">
    <path d="M16.3968 7.16217L15.0383 7.71722C14.8649 7.78859 14.6794 7.82526 14.4922 7.82517C14.2927 7.82439 14.0955 7.78225 13.9127 7.70136C13.7299 7.62046 13.5654 7.50253 13.4295 7.35483C13.2935 7.20714 13.1889 7.03282 13.1222 6.84265C13.0555 6.65248 13.028 6.45049 13.0414 6.24915L13.144 4.77133L12.2014 3.63754C11.9992 3.38997 11.8837 3.08167 11.8729 2.76074H2.94017C1.32205 2.76074 0 4.09788 0 5.74145V14.0289C0 15.6725 1.32205 17.0027 2.94017 17.0027H5.17801L5.12981 18.3886C5.12419 18.5851 5.15762 18.7807 5.22812 18.9639C5.29862 19.1471 5.40476 19.3141 5.54024 19.455C5.67573 19.5959 5.8378 19.7079 6.01687 19.7843C6.19593 19.8607 6.38833 19.9 6.58268 19.8998C6.88565 19.8998 7.18862 19.7954 7.44339 19.6004L10.8587 17.0027H14.7973C16.4154 17.0027 17.7374 15.6725 17.7374 14.0289V7.71026L16.3968 7.16217ZM9.21094 12.0929H5.59666C5.4323 12.0929 5.27468 12.0268 5.15846 11.9093C5.04224 11.7917 4.97695 11.6323 4.97695 11.4661C4.97695 11.2999 5.04224 11.1404 5.15846 11.0229C5.27468 10.9053 5.4323 10.8393 5.59666 10.8393H9.21094C9.37529 10.8393 9.53292 10.9053 9.64914 11.0229C9.76535 11.1404 9.83064 11.2999 9.83064 11.4661C9.83064 11.6323 9.76535 11.7917 9.64914 11.9093C9.53292 12.0268 9.37529 12.0929 9.21094 12.0929ZM12.4148 8.92692H5.59803C5.43368 8.92692 5.27605 8.86088 5.15983 8.74333C5.04362 8.62579 4.97833 8.46636 4.97833 8.30013C4.97833 8.1339 5.04362 7.97447 5.15983 7.85693C5.27605 7.73938 5.43368 7.67334 5.59803 7.67334H12.4148C12.5792 7.67334 12.7368 7.73938 12.853 7.85693C12.9692 7.97447 13.0345 8.1339 13.0345 8.30013C13.0345 8.46636 12.9692 8.62579 12.853 8.74333C12.7368 8.86088 12.5792 8.92692 12.4148 8.92692Z" fill="#737373"/>
    <path d="M16.7555 0.200846L17.7533 1.81586L19.58 2.2762C19.883 2.35281 20.0021 2.72331 19.8017 2.96566L18.5912 4.42398L18.7228 6.32314C18.7277 6.39545 18.7144 6.46784 18.6841 6.53352C18.6538 6.5992 18.6075 6.65602 18.5496 6.69863C18.4916 6.74124 18.4239 6.76825 18.3528 6.77713C18.2816 6.786 18.2095 6.77644 18.143 6.74936L16.3975 6.03552L14.652 6.74936C14.5855 6.77644 14.5133 6.786 14.4422 6.77713C14.3711 6.76825 14.3034 6.74124 14.2454 6.69863C14.1874 6.65602 14.1411 6.5992 14.1108 6.53352C14.0805 6.46784 14.0672 6.39545 14.0722 6.32314L14.2037 4.42398L12.9932 2.96566C12.9472 2.91009 12.9159 2.8436 12.9023 2.77243C12.8886 2.70126 12.8931 2.62776 12.9153 2.55882C12.9374 2.48988 12.9766 2.42778 13.029 2.37834C13.0814 2.3289 13.1454 2.29376 13.2149 2.2762L15.0417 1.81586L16.0394 0.200846C16.0774 0.139391 16.1301 0.0887094 16.1928 0.0535727C16.2554 0.018436 16.3259 0 16.3975 0C16.4691 0 16.5396 0.018436 16.6022 0.0535727C16.6648 0.0887094 16.7176 0.139391 16.7555 0.200846Z" fill="#737373"/>
</svg>
