<svg width="16" height="16" viewBox="0 0 16 16" fill="none" xmlns="http://www.w3.org/2000/svg">
    <g clip-path="url(#clip0_172_868)">
        <path d="M9.68673 14.4513C9.71205 14.5143 9.75606 14.5682 9.81286 14.6055C9.86966 14.6429 9.93653 14.662 10.0045 14.6603C10.0725 14.6585 10.1383 14.636 10.1931 14.5958C10.2479 14.5556 10.2891 14.4996 10.3111 14.4353L14.6427 1.77387C14.664 1.71482 14.6681 1.65092 14.6544 1.58965C14.6407 1.52837 14.6099 1.47226 14.5655 1.42786C14.5211 1.38347 14.465 1.35264 14.4037 1.33898C14.3425 1.32531 14.2786 1.32938 14.2195 1.35071L1.55812 5.68224C1.49381 5.70429 1.43778 5.74549 1.39757 5.80031C1.35735 5.85512 1.33486 5.92092 1.33312 5.98889C1.33138 6.05685 1.35047 6.12372 1.38783 6.18052C1.42519 6.23732 1.47903 6.28133 1.54212 6.30665L6.82659 8.42576C6.99364 8.49265 7.14542 8.59267 7.27278 8.71979C7.40014 8.84692 7.50043 8.99852 7.56761 9.16546L9.68673 14.4513Z" stroke="white" stroke-width="1.33278" stroke-linecap="round" stroke-linejoin="round"/>
        <path d="M14.5637 1.43066L7.27344 8.72029" stroke="white" stroke-width="1.33278" stroke-linecap="round" stroke-linejoin="round"/>
    </g>
    <defs>
        <clipPath id="clip0_172_868">
            <rect width="15.9933" height="15.9933" fill="white"/>
        </clipPath>
    </defs>
</svg>
