<svg width="16" height="16" viewBox="0 0 16 16" fill="none" xmlns="http://www.w3.org/2000/svg">
    <g clip-path="url(#clip0_232_623)">
        <path d="M9.68575 14.4513C9.71107 14.5143 9.75508 14.5682 9.81188 14.6055C9.86868 14.6429 9.93555 14.662 10.0035 14.6603C10.0715 14.6585 10.1373 14.636 10.1921 14.5958C10.2469 14.5556 10.2881 14.4996 10.3102 14.4353L14.6417 1.77387C14.663 1.71482 14.6671 1.65092 14.6534 1.58965C14.6398 1.52837 14.6089 1.47226 14.5645 1.42786C14.5201 1.38347 14.464 1.35264 14.4028 1.33898C14.3415 1.32531 14.2776 1.32938 14.2185 1.35071L1.55714 5.68224C1.49283 5.70429 1.43681 5.74549 1.39659 5.80031C1.35637 5.85512 1.33388 5.92092 1.33214 5.98889C1.3304 6.05685 1.34949 6.12372 1.38685 6.18052C1.42421 6.23732 1.47805 6.28133 1.54115 6.30665L6.82561 8.42576C6.99267 8.49265 7.14445 8.59267 7.2718 8.71979C7.39916 8.84692 7.49945 8.99852 7.56664 9.16546L9.68575 14.4513Z" stroke="white" stroke-width="0.999584" stroke-linecap="round" stroke-linejoin="round"/>
        <path d="M14.5637 1.43066L7.27344 8.72029" stroke="white" stroke-width="0.999584" stroke-linecap="round" stroke-linejoin="round"/>
    </g>
    <defs>
        <clipPath id="clip0_232_623">
            <rect width="15.9933" height="15.9933" fill="white"/>
        </clipPath>
    </defs>
</svg>
