<svg width="16" height="16" viewBox="0 0 16 16" fill="none" xmlns="http://www.w3.org/2000/svg">
    <g clip-path="url(#clip0_113_1596)">
        <path d="M8.38643 1.72351C8.13654 1.47355 7.7976 1.33308 7.44415 1.33301H2.66481C2.31133 1.33301 1.97234 1.47343 1.72239 1.72337C1.47245 1.97331 1.33203 2.31231 1.33203 2.66579V7.44513C1.33211 7.79857 1.47257 8.13752 1.72254 8.3874L7.52279 14.1877C7.82567 14.4886 8.23532 14.6575 8.66231 14.6575C9.0893 14.6575 9.49895 14.4886 9.80184 14.1877L14.1867 9.80281C14.4876 9.49993 14.6566 9.09028 14.6566 8.66329C14.6566 8.2363 14.4876 7.82665 14.1867 7.52376L8.38643 1.72351Z" stroke="#D4AF37" stroke-width="0.999584" stroke-linecap="round" stroke-linejoin="round"/>
        <path d="M4.99726 5.33094C5.18128 5.33094 5.33045 5.18176 5.33045 4.99775C5.33045 4.81373 5.18128 4.66455 4.99726 4.66455C4.81324 4.66455 4.66406 4.81373 4.66406 4.99775C4.66406 5.18176 4.81324 5.33094 4.99726 5.33094Z" fill="#D4AF37" stroke="#D4AF37" stroke-width="0.999584" stroke-linecap="round" stroke-linejoin="round"/>
    </g>
    <defs>
        <clipPath id="clip0_113_1596">
            <rect width="15.9933" height="15.9933" fill="white"/>
        </clipPath>
    </defs>
</svg>
