<svg width="20" height="20" viewBox="0 0 20 20" fill="none" xmlns="http://www.w3.org/2000/svg">
    <path d="M8.05566 3.44541C8.10155 2.96256 8.32582 2.51417 8.68465 2.18783C9.04347 1.8615 9.51107 1.68066 9.9961 1.68066C10.4811 1.68066 10.9487 1.8615 11.3076 2.18783C11.6664 2.51417 11.8906 2.96256 11.9365 3.44541C11.9641 3.75732 12.0665 4.058 12.2349 4.32199C12.4033 4.58598 12.6328 4.80551 12.904 4.96201C13.1752 5.1185 13.4802 5.20734 13.793 5.22102C14.1059 5.23469 14.4174 5.1728 14.7012 5.04058C15.142 4.84047 15.6414 4.81152 16.1023 4.95935C16.5632 5.10718 16.9526 5.42121 17.1948 5.84033C17.4369 6.25945 17.5145 6.75367 17.4123 7.22681C17.3101 7.69994 17.0356 8.11814 16.6421 8.40001C16.3858 8.57981 16.1767 8.81868 16.0323 9.09641C15.8879 9.37414 15.8125 9.68257 15.8125 9.9956C15.8125 10.3086 15.8879 10.6171 16.0323 10.8948C16.1767 11.1725 16.3858 11.4114 16.6421 11.5912C17.0356 11.8731 17.3101 12.2912 17.4123 12.7644C17.5145 13.2375 17.4369 13.7317 17.1948 14.1509C16.9526 14.57 16.5632 14.884 16.1023 15.0318C15.6414 15.1797 15.142 15.1507 14.7012 14.9506C14.4174 14.8184 14.1059 14.7565 13.793 14.7702C13.4802 14.7838 13.1752 14.8727 12.904 15.0292C12.6328 15.1857 12.4033 15.4052 12.2349 15.6692C12.0665 15.9332 11.9641 16.2339 11.9365 16.5458C11.8906 17.0286 11.6664 17.477 11.3076 17.8034C10.9487 18.1297 10.4811 18.3105 9.9961 18.3105C9.51107 18.3105 9.04347 18.1297 8.68465 17.8034C8.32582 17.477 8.10155 17.0286 8.05566 16.5458C8.02812 16.2338 7.92579 15.933 7.75733 15.6689C7.58888 15.4048 7.35926 15.1852 7.08792 15.0287C6.81658 14.8722 6.51152 14.7834 6.19858 14.7698C5.88563 14.7562 5.57402 14.8182 5.29014 14.9506C4.8494 15.1507 4.34997 15.1797 3.88906 15.0318C3.42815 14.884 3.03872 14.57 2.79658 14.1509C2.55444 13.7317 2.47691 13.2375 2.57907 12.7644C2.68123 12.2912 2.95578 11.8731 3.34928 11.5912C3.60553 11.4114 3.8147 11.1725 3.9591 10.8948C4.10351 10.6171 4.1789 10.3086 4.1789 9.9956C4.1789 9.68257 4.10351 9.37414 3.9591 9.09641C3.8147 8.81868 3.60553 8.57981 3.34928 8.40001C2.95633 8.118 2.68227 7.69996 2.58035 7.22715C2.47844 6.75434 2.55595 6.26052 2.79783 5.84167C3.03971 5.42282 3.42868 5.10886 3.88913 4.96081C4.34959 4.81276 4.84865 4.84119 5.28931 5.04058C5.57315 5.1728 5.88468 5.23469 6.19751 5.22102C6.51035 5.20734 6.81528 5.1185 7.08651 4.96201C7.35773 4.80551 7.58726 4.58598 7.75567 4.32199C7.92408 4.058 8.0264 3.75732 8.05399 3.44541" stroke="#737373" stroke-width="1.24948" stroke-linecap="round" stroke-linejoin="round"/>
    <path d="M9.99505 12.495C11.3752 12.495 12.494 11.3762 12.494 9.99603C12.494 8.61589 11.3752 7.49707 9.99505 7.49707C8.61492 7.49707 7.49609 8.61589 7.49609 9.99603C7.49609 11.3762 8.61492 12.495 9.99505 12.495Z" stroke="#737373" stroke-width="1.24948" stroke-linecap="round" stroke-linejoin="round"/>
</svg>
