<svg width="20" height="20" viewBox="0 0 20 20" fill="none" xmlns="http://www.w3.org/2000/svg">
    <g clip-path="url(#clip0_673_3767)">
        <path d="M3.49805 11.1549C2.5336 11.1549 1.74902 11.9395 1.74902 12.9039C1.74902 13.8684 2.5336 14.6529 3.49805 14.6529C4.4625 14.6529 5.24707 13.8684 5.24707 12.9039C5.24707 11.9395 4.4625 11.1549 3.49805 11.1549ZM4.66406 14.6529H2.33203C1.04588 14.6529 0 15.6988 0 16.985V19.317C0 19.6392 0.26076 19.9 0.583008 19.9H6.41309C6.73533 19.9 6.99609 19.6392 6.99609 19.317V16.985C6.99609 15.6988 5.95022 14.6529 4.66406 14.6529ZM16.402 11.1549C15.4375 11.1549 14.6529 11.9395 14.6529 12.9039C14.6529 13.8684 15.4375 14.6529 16.402 14.6529C17.3664 14.6529 18.151 13.8684 18.151 12.9039C18.151 11.9395 17.3664 11.1549 16.402 11.1549ZM17.568 14.6529H15.2359C13.9498 14.6529 12.9039 15.6988 12.9039 16.985V19.317C12.9039 19.6392 13.1647 19.9 13.4869 19.9H19.317C19.6392 19.9 19.9 19.6392 19.9 19.317V16.985C19.9 15.6988 18.8541 14.6529 17.568 14.6529ZM9.95 0H5.28594C3.67602 0 2.3709 1.30512 2.3709 2.91504V6.41309C2.3709 7.82109 3.3741 8.99849 4.70293 9.26947V11.0771C4.70293 11.5965 5.33091 11.8566 5.6982 11.4893L7.85937 9.32812H9.95C11.5599 9.32812 12.865 8.023 12.865 6.41309V2.91504C12.865 1.30512 11.5599 0 9.95 0ZM9.77918 3.32723L7.44715 5.65926C7.2195 5.8869 6.85038 5.8869 6.62274 5.65926L5.45672 4.49324C5.229 4.26552 5.229 3.89655 5.45672 3.66883C5.68444 3.44111 6.05341 3.44111 6.28113 3.66883L7.03496 4.42266L8.95481 2.50281C9.18253 2.27509 9.55149 2.27509 9.77922 2.50281C10.0069 2.73054 10.0069 3.0995 9.77918 3.32723Z" fill="#737373"/>
        <path d="M14.6142 1.16602H13.6219C13.8766 1.69822 14.0312 2.28675 14.0312 2.91504V6.41309C14.0312 7.74833 13.3773 8.92511 12.3828 9.67016L14.202 11.4893C14.5692 11.8566 15.1972 11.5965 15.1972 11.0771V9.26947C16.5261 8.99845 17.5293 7.82105 17.5293 6.41309V4.08105C17.5293 2.47114 16.2241 1.16602 14.6142 1.16602Z" fill="#737373"/>
    </g>
    <defs>
        <clipPath id="clip0_673_3767">
            <rect width="19.9" height="19.9" fill="white"/>
        </clipPath>
    </defs>
</svg>
