<svg width="16" height="16" viewBox="0 0 16 16" fill="none" xmlns="http://www.w3.org/2000/svg">
    <path d="M12.6663 11.3337H13.9997C14.3997 11.3337 14.6663 11.067 14.6663 10.667V8.66699C14.6663 8.06699 14.1997 7.53366 13.6663 7.40033C12.4663 7.06699 10.6663 6.66699 10.6663 6.66699C10.6663 6.66699 9.79967 5.73366 9.19967 5.13366C8.86634 4.86699 8.46634 4.66699 7.99967 4.66699H3.33301C2.93301 4.66699 2.59967 4.93366 2.39967 5.26699L1.46634 7.20033C1.37806 7.45781 1.33301 7.72813 1.33301 8.00033V10.667C1.33301 11.067 1.59967 11.3337 1.99967 11.3337H3.33301" stroke="#FAFAFA" stroke-linecap="round" stroke-linejoin="round"/>
    <path d="M4.66634 12.6667C5.40272 12.6667 5.99967 12.0697 5.99967 11.3333C5.99967 10.597 5.40272 10 4.66634 10C3.92996 10 3.33301 10.597 3.33301 11.3333C3.33301 12.0697 3.92996 12.6667 4.66634 12.6667Z" stroke="#FAFAFA" stroke-linecap="round" stroke-linejoin="round"/>
    <path d="M6 11.333H10" stroke="#FAFAFA" stroke-linecap="round" stroke-linejoin="round"/>
    <path d="M11.3333 12.6667C12.0697 12.6667 12.6667 12.0697 12.6667 11.3333C12.6667 10.597 12.0697 10 11.3333 10C10.597 10 10 10.597 10 11.3333C10 12.0697 10.597 12.6667 11.3333 12.6667Z" stroke="#FAFAFA" stroke-linecap="round" stroke-linejoin="round"/>
</svg>
