<svg width="24" height="17" viewBox="0 0 24 17" fill="none" xmlns="http://www.w3.org/2000/svg">
    <path d="M23.8624 5.25582C23.8047 5.1852 23.732 5.12824 23.6497 5.08904C23.5674 5.04983 23.4773 5.02935 23.3861 5.02906H21.0504C20.4739 3.50874 19.723 2.01915 18.8694 1.45687C15.9167 -0.485623 8.08465 -0.485623 5.13189 1.45687C4.27771 2.01977 3.52984 3.5112 2.95035 5.02906H0.614567C0.523307 5.029 0.433186 5.04933 0.350789 5.08856C0.268391 5.1278 0.195799 5.18494 0.138315 5.25582C0.0804815 5.32647 0.0392029 5.40917 0.0175099 5.49786C-0.00418319 5.58654 -0.00574002 5.67896 0.0129537 5.76833L0.358927 7.44473C0.387612 7.58309 0.463101 7.70734 0.572682 7.79655C0.682262 7.88576 0.819239 7.93448 0.96054 7.9345H1.65249C0.984507 8.70511 0.660656 9.67543 0.656354 10.6464C0.652052 11.8459 1.10741 12.9299 1.94008 13.6968C1.9493 13.7048 1.95852 13.7104 1.96712 13.7183V16.064C1.96712 16.5722 2.38008 16.9857 2.8889 16.9857H5.0434C5.55222 16.9857 5.96517 16.5722 5.96517 16.064V15.1213H18.0349V16.064C18.0349 16.5722 18.4479 16.9857 18.9567 16.9857H21.1112C21.6188 16.9857 22.033 16.5722 22.033 16.064V13.7644C22.9167 12.9551 23.3388 11.8416 23.3444 10.7299C23.348 9.72582 23.0094 8.71986 22.3021 7.93327H23.0402C23.1817 7.93368 23.319 7.88505 23.4286 7.79564C23.5383 7.70623 23.6137 7.58157 23.6418 7.44289L23.9884 5.7671C24.0062 5.67785 24.0042 5.58577 23.9824 5.49741C23.9606 5.40904 23.9197 5.32655 23.8624 5.25582ZM6.144 2.99624C8.4976 1.44704 15.5025 1.44704 17.8549 2.99624C18.3121 3.29612 18.9002 4.50856 19.4391 5.99324H4.561C5.0987 4.50918 5.6868 3.29735 6.144 2.99624ZM3.38727 10.8774C3.38735 10.3966 3.57846 9.93541 3.91854 9.59544C4.25863 9.25547 4.71984 9.06452 5.20071 9.0646C5.68159 9.06468 6.14273 9.25579 6.4827 9.59587C6.82268 9.93596 7.01362 10.3972 7.01354 10.878C7.0135 11.1161 6.96656 11.3519 6.87541 11.5719C6.78425 11.7918 6.65066 11.9917 6.48227 12.16C6.31388 12.3284 6.11398 12.4619 5.89398 12.553C5.67399 12.6441 5.4382 12.6909 5.2001 12.6909C4.962 12.6908 4.72623 12.6439 4.50627 12.5527C4.2863 12.4616 4.08645 12.328 3.91811 12.1596C3.57814 11.8195 3.38719 11.3583 3.38727 10.8774ZM18.8234 12.6909C18.3423 12.6909 17.881 12.4998 17.5408 12.1596C17.2007 11.8195 17.0096 11.3582 17.0096 10.8771C17.0096 10.3961 17.2007 9.93475 17.5408 9.59461C17.881 9.25446 18.3423 9.06337 18.8234 9.06337C19.3044 9.06337 19.7657 9.25446 20.1059 9.59461C20.446 9.93475 20.6371 10.3961 20.6371 10.8771C20.6371 11.3582 20.446 11.8195 20.1059 12.1596C19.7657 12.4998 19.3044 12.6909 18.8234 12.6909Z" fill="#FBFBFD"/>
</svg>
